<svg width="349" height="688" viewBox="0 0 349 688" fill="none" xmlns="http://www.w3.org/2000/svg">
<circle cx="101" cy="100" r="99.5" fill="#2B28B8" stroke="black"/>
<circle cx="249" cy="469" r="99.5" fill="#403CE6" stroke="black"/>
<circle cx="259" cy="233" r="49.5" fill="#239A61" stroke="black"/>
<circle cx="91" cy="319" r="49.5" fill="#2CCE1E" stroke="black"/>
<path d="M43.0557 594.555H57.2939C57.0596 598.949 55.8584 602.831 53.6904 606.2C51.5518 609.54 48.5781 612.162 44.7695 614.066C40.9609 615.941 36.4346 616.879 31.1904 616.879C27.001 616.879 23.251 616.161 19.9404 614.726C16.6299 613.29 13.8174 611.239 11.5029 608.573C9.21777 605.878 7.45996 602.641 6.22949 598.861C5.02832 595.053 4.42773 590.761 4.42773 585.985V582.074C4.42773 577.299 5.05762 573.007 6.31738 569.198C7.57715 565.39 9.37891 562.138 11.7227 559.442C14.0664 556.747 16.8789 554.682 20.1602 553.246C23.4414 551.811 27.1035 551.093 31.1465 551.093C36.5957 551.093 41.1953 552.074 44.9453 554.037C48.6953 556 51.5957 558.695 53.6465 562.123C55.7266 565.551 56.9717 569.462 57.3818 573.856H43.0996C42.9824 571.366 42.5137 569.271 41.6934 567.572C40.873 565.844 39.6133 564.54 37.9141 563.661C36.2148 562.782 33.959 562.343 31.1465 562.343C29.0957 562.343 27.2939 562.724 25.7412 563.485C24.2178 564.247 22.9434 565.434 21.918 567.045C20.9219 568.656 20.1748 570.707 19.6768 573.197C19.1787 575.658 18.9297 578.588 18.9297 581.986V585.985C18.9297 589.354 19.1494 592.27 19.5889 594.73C20.0283 597.191 20.7314 599.228 21.6982 600.839C22.6943 602.45 23.9688 603.651 25.5215 604.442C27.0742 605.233 28.9639 605.629 31.1904 605.629C33.7393 605.629 35.8633 605.233 37.5625 604.442C39.2617 603.622 40.5654 602.392 41.4736 600.751C42.3818 599.11 42.9092 597.045 43.0557 594.555ZM62.5674 592.709V591.786C62.5674 588.3 63.0654 585.092 64.0615 582.162C65.0576 579.203 66.5225 576.64 68.4561 574.472C70.3896 572.304 72.7627 570.619 75.5752 569.418C78.3877 568.188 81.6104 567.572 85.2432 567.572C88.9346 567.572 92.1865 568.188 94.999 569.418C97.8408 570.619 100.229 572.304 102.162 574.472C104.096 576.64 105.561 579.203 106.557 582.162C107.553 585.092 108.051 588.3 108.051 591.786V592.709C108.051 596.166 107.553 599.374 106.557 602.333C105.561 605.263 104.096 607.826 102.162 610.023C100.229 612.191 97.8555 613.876 95.043 615.077C92.2305 616.278 88.9932 616.879 85.3311 616.879C81.6982 616.879 78.4609 616.278 75.6191 615.077C72.7773 613.876 70.3896 612.191 68.4561 610.023C66.5225 607.826 65.0576 605.263 64.0615 602.333C63.0654 599.374 62.5674 596.166 62.5674 592.709ZM76.3223 591.786V592.709C76.3223 594.584 76.4688 596.342 76.7617 597.982C77.084 599.623 77.5967 601.059 78.2998 602.289C79.0029 603.52 79.9258 604.486 81.0684 605.189C82.2402 605.863 83.6611 606.2 85.3311 606.2C87.001 606.2 88.4072 605.863 89.5498 605.189C90.6924 604.486 91.6152 603.52 92.3184 602.289C93.0215 601.059 93.5195 599.623 93.8125 597.982C94.1348 596.342 94.2959 594.584 94.2959 592.709V591.786C94.2959 589.94 94.1348 588.212 93.8125 586.601C93.5195 584.96 93.0215 583.51 92.3184 582.25C91.6152 580.99 90.6777 580.009 89.5059 579.306C88.3633 578.603 86.9424 578.251 85.2432 578.251C83.6025 578.251 82.2109 578.603 81.0684 579.306C79.9258 580.009 79.0029 580.99 78.2998 582.25C77.5967 583.51 77.084 584.96 76.7617 586.601C76.4688 588.212 76.3223 589.94 76.3223 591.786ZM157.709 604.926V616H125.409V604.926H157.709ZM130.287 552.016V616H115.961V552.016H130.287ZM189.218 604.662V584.271C189.218 582.836 188.998 581.605 188.559 580.58C188.119 579.555 187.431 578.749 186.493 578.163C185.556 577.577 184.34 577.284 182.846 577.284C181.586 577.284 180.487 577.504 179.55 577.943C178.642 578.383 177.938 579.013 177.44 579.833C176.972 580.653 176.737 581.664 176.737 582.865H163.026C163.026 580.727 163.51 578.734 164.477 576.889C165.443 575.043 166.82 573.417 168.607 572.011C170.424 570.604 172.592 569.521 175.111 568.759C177.631 567.968 180.458 567.572 183.593 567.572C187.313 567.572 190.624 568.202 193.524 569.462C196.454 570.692 198.769 572.553 200.468 575.043C202.167 577.504 203.017 580.609 203.017 584.359V604.267C203.017 607.138 203.178 609.394 203.5 611.034C203.852 612.646 204.35 614.052 204.994 615.253V616H191.151C190.507 614.623 190.023 612.924 189.701 610.902C189.379 608.852 189.218 606.771 189.218 604.662ZM190.932 586.996L191.02 594.555H184.208C182.685 594.555 181.366 594.745 180.253 595.126C179.169 595.507 178.29 596.034 177.616 596.708C176.942 597.353 176.444 598.114 176.122 598.993C175.829 599.843 175.683 600.78 175.683 601.806C175.683 602.772 175.917 603.651 176.386 604.442C176.854 605.204 177.499 605.805 178.319 606.244C179.14 606.684 180.092 606.903 181.176 606.903C182.963 606.903 184.486 606.552 185.746 605.849C187.035 605.146 188.031 604.296 188.734 603.3C189.438 602.274 189.789 601.322 189.789 600.443L193.085 606.156C192.558 607.328 191.913 608.544 191.151 609.804C190.39 611.034 189.423 612.191 188.251 613.275C187.079 614.33 185.658 615.194 183.988 615.868C182.348 616.542 180.37 616.879 178.056 616.879C175.067 616.879 172.357 616.278 169.926 615.077C167.494 613.847 165.546 612.162 164.081 610.023C162.646 607.885 161.928 605.424 161.928 602.641C161.928 600.15 162.382 597.938 163.29 596.005C164.198 594.071 165.561 592.431 167.377 591.083C169.223 589.735 171.537 588.725 174.32 588.051C177.104 587.348 180.355 586.996 184.076 586.996H190.932ZM212.069 548.5H225.78V604.706L224.374 616H212.069V548.5ZM255.443 591.698V592.621C255.443 596.225 255.062 599.506 254.301 602.465C253.568 605.424 252.44 607.987 250.917 610.155C249.394 612.294 247.475 613.949 245.16 615.121C242.846 616.293 240.121 616.879 236.986 616.879C234.086 616.879 231.596 616.278 229.516 615.077C227.436 613.847 225.692 612.147 224.286 609.979C222.88 607.812 221.737 605.277 220.858 602.377C220.009 599.477 219.35 596.356 218.881 593.017V591.435C219.35 588.095 220.009 584.975 220.858 582.074C221.737 579.174 222.88 576.64 224.286 574.472C225.692 572.304 227.421 570.619 229.472 569.418C231.552 568.188 234.027 567.572 236.898 567.572C240.062 567.572 242.802 568.173 245.116 569.374C247.46 570.575 249.394 572.26 250.917 574.428C252.44 576.566 253.568 579.115 254.301 582.074C255.062 585.004 255.443 588.212 255.443 591.698ZM241.732 592.621V591.698C241.732 589.882 241.601 588.168 241.337 586.557C241.103 584.945 240.678 583.524 240.062 582.294C239.477 581.034 238.642 580.053 237.558 579.35C236.503 578.617 235.141 578.251 233.471 578.251C231.83 578.251 230.438 578.529 229.296 579.086C228.153 579.643 227.23 580.434 226.527 581.459C225.824 582.455 225.312 583.671 224.989 585.106C224.667 586.542 224.491 588.139 224.462 589.896V594.555C224.491 596.898 224.799 598.949 225.385 600.707C225.971 602.465 226.923 603.827 228.241 604.794C229.56 605.731 231.332 606.2 233.559 606.2C235.258 606.2 236.635 605.878 237.689 605.233C238.773 604.56 239.594 603.622 240.15 602.421C240.736 601.22 241.146 599.784 241.381 598.114C241.615 596.444 241.732 594.613 241.732 592.621Z" fill="black"/>
<circle cx="32.0428" cy="655.043" r="25" transform="rotate(-70 32.0428 655.043)" fill="#242893"/>
<circle cx="90.0428" cy="655.043" r="25" transform="rotate(-70 90.0428 655.043)" fill="#2C9D2A"/>
<circle cx="149.043" cy="655.043" r="25" transform="rotate(-70 149.043 655.043)" fill="#242893"/>
</svg>
