<svg width="462" height="253" viewBox="0 0 462 253" fill="none" xmlns="http://www.w3.org/2000/svg">
<path d="M215.839 -196.895C189.675 -222.788 277.572 -322.242 365.968 -433.902C365.968 -433.902 394.383 -332.932 422.059 -215.02C494.283 -195.019 503.203 -119.396 441.535 -127.981C473.78 24.519 493.731 171.779 443.308 146.403C343.153 95.9984 240.662 304.796 142.703 238.865C44.7435 172.933 -72.2302 -96.5478 59.8522 -18.6872C150.91 34.9901 155.978 -136.628 215.839 -196.895Z" fill="#08E560"/>
<path d="M318.784 -208.141C115.435 -140.867 240.196 -275.029 365.968 -433.902C365.968 -433.902 543.463 196.807 443.308 146.403C343.153 95.9984 240.662 304.796 142.703 238.865C44.7435 172.933 -72.2302 -96.5478 59.8522 -18.6872C191.935 59.1733 143.09 -336.996 342.985 -179.76C542.88 -22.5237 522.134 -275.416 318.784 -208.141Z" stroke="black"/>
</svg>
